<?xml version="1.0" encoding="UTF-8"?>
<svg xmlns="http://www.w3.org/2000/svg" width="160" height="50" viewBox="0 0 621 177" fill="none">
  <g clip-path="url(#clip0_1_3)">
    <path d="M0.714973 79.2356C-1.08377 73.8007 0.569252 67.6235 5.04106 63.0993L60.868 5.20952L70.4105 14.44L14.5926 72.3139C14.4421 72.4413 14.3341 72.6116 14.2828 72.8019C14.2316 72.9923 14.2396 73.1938 14.3057 73.3795C14.3512 73.5602 14.4602 73.7185 14.6128 73.8256C14.7654 73.9326 14.9514 73.9811 15.1368 73.9624L0.714973 79.2356Z" fill="#FF0055"></path>
    <path d="M83.7894 21.0817L83.6482 21.3094L51.1776 73.9624H35.4329L71.6536 15.2369C71.854 14.8612 71.7993 14.7565 71.7515 14.6654L83.7894 21.0817Z" fill="#FF0055"></path>
    <path d="M43.6206 162.456C43.7845 162.456 44.126 162.456 44.7089 161.868L92.4074 113.844C92.5582 113.718 92.6665 113.548 92.7178 113.358C92.7691 113.168 92.7609 112.966 92.6943 112.781L106.287 106.913C108.091 112.378 106.419 118.576 101.92 123.104L54.2195 171.147C50.7245 174.667 46.3301 176.611 41.8469 176.611L43.6206 162.456Z" fill="#FF0055"></path>
    <path d="M78.0563 79.7252C76.1004 76.1163 72.339 73.9624 67.9993 73.9624H15.1368C14.9456 73.9624 0.715012 79.2448 0.715012 79.2448C2.52058 84.7093 7.3658 88.0927 13.3631 88.0927H64.4564L58.9555 98.0632H74.3154L77.6852 91.9543L77.7193 91.8929C79.8869 87.8878 80.0121 83.334 78.0563 79.7252Z" fill="#FF0055"></path>
    <path d="M53.5365 112.191L30.0231 154.815L29.9912 154.876C27.3159 159.819 27.1269 165.122 29.4698 169.448C31.8537 173.847 36.5965 176.579 41.847 176.579L43.6207 162.449C43.333 162.437 43.0529 162.353 42.8059 162.205C42.5589 162.058 42.3529 161.85 42.2067 161.602C42.0724 161.356 41.9631 161.03 42.3501 160.306L68.8964 112.191H53.5365Z" fill="#FF0055"></path>
    <path d="M93.6369 98.0609H38.6866L44.8341 88.0905H29.094L25.4806 93.9466L25.3417 94.1743C23.0648 98.1497 22.8508 102.704 24.7611 106.356C26.6714 110.008 30.4101 112.184 34.7635 112.184H91.8632C92.0487 112.166 92.2346 112.214 92.3872 112.321C92.5398 112.428 92.6488 112.587 92.6943 112.767L106.287 106.9C104.482 101.451 99.6342 98.0609 93.6369 98.0609Z" fill="#FF0055"></path>
    <path d="M60.868 5.20952C64.2082 1.85111 68.4 0 72.6783 0C77.7625 0 82.3209 2.67306 84.5704 6.9741C86.7836 11.2023 86.4967 16.3435 83.7872 21.0908L71.7516 14.6654C71.6642 14.5144 71.5414 14.3868 71.3939 14.2937C71.2464 14.2005 71.0785 14.1444 70.9046 14.1304C70.859 14.1304 70.7247 14.1304 70.4105 14.44L60.868 5.20952Z" fill="#FF0055"></path>
  </g>
  <path d="M182.117 95H166.609V71.7188H148.68V95H133.172V37.8906H148.68V59.0625H166.609V37.8906H182.117V95ZM194.5 95V37.8906H210.008V95H194.5ZM276.766 95H256.531L235.672 54.7656H235.32C235.815 61.0938 236.062 65.9245 236.062 69.2578V95H222.391V37.8906H242.547L263.328 77.5781H263.562C263.198 71.8229 263.016 67.2005 263.016 63.7109V37.8906H276.766V95ZM337.586 65.2344C337.586 74.7656 334.956 82.1094 329.695 87.2656C324.461 92.4219 317.091 95 307.586 95H289.109V37.8906H308.875C318.042 37.8906 325.112 40.2344 330.086 44.9219C335.086 49.6094 337.586 56.3802 337.586 65.2344ZM321.57 65.7812C321.57 60.5469 320.529 56.6667 318.445 54.1406C316.388 51.6146 313.25 50.3516 309.031 50.3516H304.539V82.3438H307.977C312.664 82.3438 316.102 80.9896 318.289 78.2812C320.477 75.5469 321.57 71.3802 321.57 65.7812ZM396.414 37.8906V72.2656C396.414 79.7396 394.292 85.5339 390.047 89.6484C385.828 93.737 379.734 95.7812 371.766 95.7812C363.979 95.7812 357.99 93.7891 353.797 89.8047C349.63 85.8203 347.547 80.0911 347.547 72.6172V37.8906H363.055V71.4062C363.055 75.4427 363.81 78.3724 365.32 80.1953C366.831 82.0182 369.057 82.9297 372 82.9297C375.151 82.9297 377.43 82.0312 378.836 80.2344C380.268 78.4115 380.984 75.4427 380.984 71.3281V37.8906H396.414ZM445.75 77.6562C445.75 81.1979 444.852 84.349 443.055 87.1094C441.258 89.8438 438.667 91.9792 435.281 93.5156C431.896 95.026 427.924 95.7812 423.367 95.7812C419.565 95.7812 416.375 95.5208 413.797 95C411.219 94.4531 408.536 93.5156 405.75 92.1875V78.4375C408.693 79.9479 411.753 81.1328 414.93 81.9922C418.107 82.8255 421.023 83.2422 423.68 83.2422C425.971 83.2422 427.651 82.8516 428.719 82.0703C429.786 81.263 430.32 80.2344 430.32 78.9844C430.32 78.2031 430.099 77.526 429.656 76.9531C429.24 76.3542 428.549 75.7552 427.586 75.1562C426.648 74.5573 424.122 73.3333 420.008 71.4844C416.284 69.7917 413.484 68.151 411.609 66.5625C409.76 64.974 408.38 63.151 407.469 61.0938C406.583 59.0365 406.141 56.6016 406.141 53.7891C406.141 48.5286 408.055 44.4271 411.883 41.4844C415.711 38.5417 420.971 37.0703 427.664 37.0703C433.576 37.0703 439.604 38.4375 445.75 41.1719L441.023 53.0859C435.685 50.638 431.076 49.4141 427.195 49.4141C425.19 49.4141 423.732 49.7656 422.82 50.4688C421.909 51.1719 421.453 52.0443 421.453 53.0859C421.453 54.2057 422.026 55.2083 423.172 56.0938C424.344 56.9792 427.495 58.5938 432.625 60.9375C437.547 63.151 440.958 65.5339 442.859 68.0859C444.786 70.612 445.75 73.8021 445.75 77.6562ZM479.773 95H464.344V50.5078H450.398V37.8906H493.68V50.5078H479.773V95ZM536.883 95L534.07 84.2969H515.516L512.625 95H495.672L514.305 37.6562H534.891L553.758 95H536.883ZM530.867 71.6406L528.406 62.2656C527.833 60.1823 527.13 57.487 526.297 54.1797C525.49 50.8724 524.956 48.5026 524.695 47.0703C524.461 48.3984 523.992 50.5859 523.289 53.6328C522.612 56.6797 521.089 62.6823 518.719 71.6406H530.867ZM614.344 95H594.109L573.25 54.7656H572.898C573.393 61.0938 573.641 65.9245 573.641 69.2578V95H559.969V37.8906H580.125L600.906 77.5781H601.141C600.776 71.8229 600.594 67.2005 600.594 63.7109V37.8906H614.344V95Z" fill="white"></path>
  <path d="M231.312 157H214.867V128.445H231.312V133.406H220.922V139.676H230.59V144.637H220.922V152H231.312V157ZM256.977 157H251.02V144.246C251.02 142.671 250.74 141.492 250.18 140.711C249.62 139.917 248.728 139.52 247.504 139.52C245.837 139.52 244.633 140.079 243.891 141.199C243.148 142.306 242.777 144.148 242.777 146.727V157H236.82V135.164H241.371L242.172 137.957H242.504C243.168 136.902 244.079 136.108 245.238 135.574C246.41 135.027 247.738 134.754 249.223 134.754C251.762 134.754 253.689 135.444 255.004 136.824C256.319 138.191 256.977 140.171 256.977 142.762V157ZM282.113 135.164V138.191L278.695 139.07C279.32 140.047 279.633 141.141 279.633 142.352C279.633 144.695 278.812 146.525 277.172 147.84C275.544 149.142 273.279 149.793 270.375 149.793L269.301 149.734L268.422 149.637C267.81 150.105 267.504 150.626 267.504 151.199C267.504 152.059 268.598 152.488 270.785 152.488H274.496C276.892 152.488 278.715 153.003 279.965 154.031C281.228 155.06 281.859 156.57 281.859 158.562C281.859 161.115 280.792 163.094 278.656 164.5C276.534 165.906 273.48 166.609 269.496 166.609C266.449 166.609 264.118 166.076 262.504 165.008C260.902 163.953 260.102 162.469 260.102 160.555C260.102 159.24 260.512 158.139 261.332 157.254C262.152 156.368 263.357 155.737 264.945 155.359C264.333 155.099 263.799 154.676 263.344 154.09C262.888 153.491 262.66 152.859 262.66 152.195C262.66 151.362 262.901 150.672 263.383 150.125C263.865 149.565 264.561 149.018 265.473 148.484C264.327 147.99 263.415 147.195 262.738 146.102C262.074 145.008 261.742 143.719 261.742 142.234C261.742 139.852 262.517 138.009 264.066 136.707C265.616 135.405 267.829 134.754 270.707 134.754C271.319 134.754 272.042 134.812 272.875 134.93C273.721 135.034 274.262 135.112 274.496 135.164H282.113ZM265.258 160.086C265.258 160.906 265.648 161.551 266.43 162.02C267.224 162.488 268.331 162.723 269.75 162.723C271.885 162.723 273.559 162.43 274.77 161.844C275.98 161.258 276.586 160.457 276.586 159.441C276.586 158.621 276.228 158.055 275.512 157.742C274.796 157.43 273.689 157.273 272.191 157.273H269.105C268.012 157.273 267.094 157.527 266.352 158.035C265.622 158.556 265.258 159.24 265.258 160.086ZM267.426 142.312C267.426 143.497 267.693 144.435 268.227 145.125C268.773 145.815 269.6 146.16 270.707 146.16C271.827 146.16 272.647 145.815 273.168 145.125C273.689 144.435 273.949 143.497 273.949 142.312C273.949 139.682 272.868 138.367 270.707 138.367C268.52 138.367 267.426 139.682 267.426 142.312ZM285.473 129.52C285.473 127.579 286.553 126.609 288.715 126.609C290.876 126.609 291.957 127.579 291.957 129.52C291.957 130.444 291.684 131.167 291.137 131.688C290.603 132.195 289.796 132.449 288.715 132.449C286.553 132.449 285.473 131.473 285.473 129.52ZM291.684 157H285.727V135.164H291.684V157ZM318.109 157H312.152V144.246C312.152 142.671 311.872 141.492 311.312 140.711C310.753 139.917 309.861 139.52 308.637 139.52C306.97 139.52 305.766 140.079 305.023 141.199C304.281 142.306 303.91 144.148 303.91 146.727V157H297.953V135.164H302.504L303.305 137.957H303.637C304.301 136.902 305.212 136.108 306.371 135.574C307.543 135.027 308.871 134.754 310.355 134.754C312.895 134.754 314.822 135.444 316.137 136.824C317.452 138.191 318.109 140.171 318.109 142.762V157ZM333.285 138.992C332.022 138.992 331.033 139.396 330.316 140.203C329.6 140.997 329.19 142.13 329.086 143.602H337.445C337.419 142.13 337.035 140.997 336.293 140.203C335.551 139.396 334.548 138.992 333.285 138.992ZM334.125 157.391C330.609 157.391 327.862 156.421 325.883 154.48C323.904 152.54 322.914 149.793 322.914 146.238C322.914 142.579 323.826 139.754 325.648 137.762C327.484 135.757 330.017 134.754 333.246 134.754C336.332 134.754 338.734 135.633 340.453 137.391C342.172 139.148 343.031 141.577 343.031 144.676V147.566H328.949C329.014 149.259 329.516 150.581 330.453 151.531C331.391 152.482 332.706 152.957 334.398 152.957C335.714 152.957 336.957 152.82 338.129 152.547C339.301 152.273 340.525 151.837 341.801 151.238V155.848C340.759 156.368 339.646 156.753 338.461 157C337.276 157.26 335.831 157.391 334.125 157.391ZM356.918 138.992C355.655 138.992 354.665 139.396 353.949 140.203C353.233 140.997 352.823 142.13 352.719 143.602H361.078C361.052 142.13 360.668 140.997 359.926 140.203C359.184 139.396 358.181 138.992 356.918 138.992ZM357.758 157.391C354.242 157.391 351.495 156.421 349.516 154.48C347.536 152.54 346.547 149.793 346.547 146.238C346.547 142.579 347.458 139.754 349.281 137.762C351.117 135.757 353.65 134.754 356.879 134.754C359.965 134.754 362.367 135.633 364.086 137.391C365.805 139.148 366.664 141.577 366.664 144.676V147.566H352.582C352.647 149.259 353.148 150.581 354.086 151.531C355.023 152.482 356.339 152.957 358.031 152.957C359.346 152.957 360.59 152.82 361.762 152.547C362.934 152.273 364.158 151.837 365.434 151.238V155.848C364.392 156.368 363.279 156.753 362.094 157C360.909 157.26 359.464 157.391 357.758 157.391ZM383.695 134.754C384.503 134.754 385.173 134.812 385.707 134.93L385.258 140.516C384.776 140.385 384.19 140.32 383.5 140.32C381.599 140.32 380.115 140.809 379.047 141.785C377.992 142.762 377.465 144.129 377.465 145.887V157H371.508V135.164H376.02L376.898 138.836H377.191C377.868 137.612 378.78 136.629 379.926 135.887C381.085 135.132 382.341 134.754 383.695 134.754ZM389.418 129.52C389.418 127.579 390.499 126.609 392.66 126.609C394.822 126.609 395.902 127.579 395.902 129.52C395.902 130.444 395.629 131.167 395.082 131.688C394.548 132.195 393.741 132.449 392.66 132.449C390.499 132.449 389.418 131.473 389.418 129.52ZM395.629 157H389.672V135.164H395.629V157ZM422.055 157H416.098V144.246C416.098 142.671 415.818 141.492 415.258 140.711C414.698 139.917 413.806 139.52 412.582 139.52C410.915 139.52 409.711 140.079 408.969 141.199C408.227 142.306 407.855 144.148 407.855 146.727V157H401.898V135.164H406.449L407.25 137.957H407.582C408.246 136.902 409.158 136.108 410.316 135.574C411.488 135.027 412.816 134.754 414.301 134.754C416.84 134.754 418.767 135.444 420.082 136.824C421.397 138.191 422.055 140.171 422.055 142.762V157ZM447.191 135.164V138.191L443.773 139.07C444.398 140.047 444.711 141.141 444.711 142.352C444.711 144.695 443.891 146.525 442.25 147.84C440.622 149.142 438.357 149.793 435.453 149.793L434.379 149.734L433.5 149.637C432.888 150.105 432.582 150.626 432.582 151.199C432.582 152.059 433.676 152.488 435.863 152.488H439.574C441.97 152.488 443.793 153.003 445.043 154.031C446.306 155.06 446.938 156.57 446.938 158.562C446.938 161.115 445.87 163.094 443.734 164.5C441.612 165.906 438.559 166.609 434.574 166.609C431.527 166.609 429.197 166.076 427.582 165.008C425.98 163.953 425.18 162.469 425.18 160.555C425.18 159.24 425.59 158.139 426.41 157.254C427.23 156.368 428.435 155.737 430.023 155.359C429.411 155.099 428.878 154.676 428.422 154.09C427.966 153.491 427.738 152.859 427.738 152.195C427.738 151.362 427.979 150.672 428.461 150.125C428.943 149.565 429.639 149.018 430.551 148.484C429.405 147.99 428.493 147.195 427.816 146.102C427.152 145.008 426.82 143.719 426.82 142.234C426.82 139.852 427.595 138.009 429.145 136.707C430.694 135.405 432.908 134.754 435.785 134.754C436.397 134.754 437.12 134.812 437.953 134.93C438.799 135.034 439.34 135.112 439.574 135.164H447.191ZM430.336 160.086C430.336 160.906 430.727 161.551 431.508 162.02C432.302 162.488 433.409 162.723 434.828 162.723C436.964 162.723 438.637 162.43 439.848 161.844C441.059 161.258 441.664 160.457 441.664 159.441C441.664 158.621 441.306 158.055 440.59 157.742C439.874 157.43 438.767 157.273 437.27 157.273H434.184C433.09 157.273 432.172 157.527 431.43 158.035C430.701 158.556 430.336 159.24 430.336 160.086ZM432.504 142.312C432.504 143.497 432.771 144.435 433.305 145.125C433.852 145.815 434.678 146.16 435.785 146.16C436.905 146.16 437.725 145.815 438.246 145.125C438.767 144.435 439.027 143.497 439.027 142.312C439.027 139.682 437.947 138.367 435.785 138.367C433.598 138.367 432.504 139.682 432.504 142.312ZM478.52 149.07C478.52 151.648 477.589 153.68 475.727 155.164C473.878 156.648 471.299 157.391 467.992 157.391C464.945 157.391 462.25 156.818 459.906 155.672V150.047C461.833 150.906 463.461 151.512 464.789 151.863C466.13 152.215 467.354 152.391 468.461 152.391C469.789 152.391 470.805 152.137 471.508 151.629C472.224 151.121 472.582 150.366 472.582 149.363C472.582 148.803 472.426 148.309 472.113 147.879C471.801 147.436 471.339 147.013 470.727 146.609C470.128 146.206 468.897 145.561 467.035 144.676C465.29 143.855 463.982 143.068 463.109 142.312C462.237 141.557 461.54 140.678 461.02 139.676C460.499 138.673 460.238 137.501 460.238 136.16C460.238 133.634 461.091 131.648 462.797 130.203C464.516 128.758 466.885 128.035 469.906 128.035C471.391 128.035 472.803 128.211 474.145 128.562C475.499 128.914 476.911 129.409 478.383 130.047L476.43 134.754C474.906 134.129 473.643 133.693 472.641 133.445C471.651 133.198 470.674 133.074 469.711 133.074C468.565 133.074 467.686 133.341 467.074 133.875C466.462 134.409 466.156 135.105 466.156 135.965C466.156 136.499 466.28 136.967 466.527 137.371C466.775 137.762 467.165 138.146 467.699 138.523C468.246 138.888 469.529 139.552 471.547 140.516C474.216 141.792 476.046 143.074 477.035 144.363C478.025 145.639 478.52 147.208 478.52 149.07ZM492.27 138.992C491.007 138.992 490.017 139.396 489.301 140.203C488.585 140.997 488.174 142.13 488.07 143.602H496.43C496.404 142.13 496.02 140.997 495.277 140.203C494.535 139.396 493.533 138.992 492.27 138.992ZM493.109 157.391C489.594 157.391 486.846 156.421 484.867 154.48C482.888 152.54 481.898 149.793 481.898 146.238C481.898 142.579 482.81 139.754 484.633 137.762C486.469 135.757 489.001 134.754 492.23 134.754C495.316 134.754 497.719 135.633 499.438 137.391C501.156 139.148 502.016 141.577 502.016 144.676V147.566H487.934C487.999 149.259 488.5 150.581 489.438 151.531C490.375 152.482 491.69 152.957 493.383 152.957C494.698 152.957 495.941 152.82 497.113 152.547C498.285 152.273 499.509 151.837 500.785 151.238V155.848C499.743 156.368 498.63 156.753 497.445 157C496.26 157.26 494.815 157.391 493.109 157.391ZM519.047 134.754C519.854 134.754 520.525 134.812 521.059 134.93L520.609 140.516C520.128 140.385 519.542 140.32 518.852 140.32C516.951 140.32 515.466 140.809 514.398 141.785C513.344 142.762 512.816 144.129 512.816 145.887V157H506.859V135.164H511.371L512.25 138.836H512.543C513.22 137.612 514.132 136.629 515.277 135.887C516.436 135.132 517.693 134.754 519.047 134.754ZM530.219 157L521.898 135.164H528.129L532.348 147.605C532.816 149.181 533.109 150.672 533.227 152.078H533.344C533.409 150.828 533.702 149.337 534.223 147.605L538.422 135.164H544.652L536.332 157H530.219ZM547.543 129.52C547.543 127.579 548.624 126.609 550.785 126.609C552.947 126.609 554.027 127.579 554.027 129.52C554.027 130.444 553.754 131.167 553.207 131.688C552.673 132.195 551.866 132.449 550.785 132.449C548.624 132.449 547.543 131.473 547.543 129.52ZM553.754 157H547.797V135.164H553.754V157ZM568.891 157.391C562.094 157.391 558.695 153.66 558.695 146.199C558.695 142.488 559.62 139.656 561.469 137.703C563.318 135.737 565.967 134.754 569.418 134.754C571.944 134.754 574.21 135.249 576.215 136.238L574.457 140.848C573.52 140.47 572.647 140.164 571.84 139.93C571.033 139.682 570.225 139.559 569.418 139.559C566.319 139.559 564.77 141.759 564.77 146.16C564.77 150.431 566.319 152.566 569.418 152.566C570.564 152.566 571.625 152.417 572.602 152.117C573.578 151.805 574.555 151.323 575.531 150.672V155.77C574.568 156.382 573.591 156.805 572.602 157.039C571.625 157.273 570.388 157.391 568.891 157.391ZM589.652 138.992C588.389 138.992 587.4 139.396 586.684 140.203C585.967 140.997 585.557 142.13 585.453 143.602H593.812C593.786 142.13 593.402 140.997 592.66 140.203C591.918 139.396 590.915 138.992 589.652 138.992ZM590.492 157.391C586.977 157.391 584.229 156.421 582.25 154.48C580.271 152.54 579.281 149.793 579.281 146.238C579.281 142.579 580.193 139.754 582.016 137.762C583.852 135.757 586.384 134.754 589.613 134.754C592.699 134.754 595.102 135.633 596.82 137.391C598.539 139.148 599.398 141.577 599.398 144.676V147.566H585.316C585.382 149.259 585.883 150.581 586.82 151.531C587.758 152.482 589.073 152.957 590.766 152.957C592.081 152.957 593.324 152.82 594.496 152.547C595.668 152.273 596.892 151.837 598.168 151.238V155.848C597.126 156.368 596.013 156.753 594.828 157C593.643 157.26 592.198 157.391 590.492 157.391ZM619.477 150.516C619.477 152.755 618.695 154.461 617.133 155.633C615.583 156.805 613.259 157.391 610.16 157.391C608.572 157.391 607.217 157.28 606.098 157.059C604.978 156.85 603.93 156.538 602.953 156.121V151.199C604.06 151.72 605.303 152.156 606.684 152.508C608.077 152.859 609.301 153.035 610.355 153.035C612.517 153.035 613.598 152.41 613.598 151.16C613.598 150.691 613.454 150.314 613.168 150.027C612.882 149.728 612.387 149.396 611.684 149.031C610.98 148.654 610.043 148.217 608.871 147.723C607.191 147.02 605.954 146.368 605.16 145.77C604.379 145.171 603.806 144.487 603.441 143.719C603.09 142.938 602.914 141.98 602.914 140.848C602.914 138.908 603.663 137.41 605.16 136.355C606.671 135.288 608.806 134.754 611.566 134.754C614.197 134.754 616.755 135.327 619.242 136.473L617.445 140.77C616.352 140.301 615.329 139.917 614.379 139.617C613.428 139.318 612.458 139.168 611.469 139.168C609.711 139.168 608.832 139.643 608.832 140.594C608.832 141.128 609.112 141.59 609.672 141.98C610.245 142.371 611.488 142.951 613.402 143.719C615.108 144.409 616.358 145.053 617.152 145.652C617.947 146.251 618.533 146.941 618.91 147.723C619.288 148.504 619.477 149.435 619.477 150.516Z" fill="white"></path>
  <defs>
    <clipPath id="clip0_1_3">
      <rect width="107" height="176.586" fill="white"></rect>
    </clipPath>
  </defs>
</svg>
